<svg version="1" xmlns="http://www.w3.org/2000/svg" width="682.667" height="682.667" viewBox="0 0 512.000000 512.000000"><path d="M236.5 11.1c-31.2 4.6-60.7 22.6-80.8 49.4-20.1 26.8-27.9 63.9-20.7 98.5 9.4 45.2 46.9 83.1 92.5 93.7 11.5 2.6 43.5 2.6 55 0 45.6-10.6 83.1-48.5 92.5-93.7 5.6-27.2 2.3-55.2-9.4-79.5-6.7-14-14.6-24.5-27.3-36.5-19.2-18.1-40.2-28.3-65.8-32-8.3-1.1-27.6-1.1-36 .1z"/><path d="M107.9 240.9c-13 4.7-21.3 10.3-33.4 22.5-7.4 7.5-12.6 13.8-15.8 19.3-12.2 20.5-22.2 54-26.2 87.8-2.2 18.8-3 51-1.6 62 4.5 33.8 25.5 57.3 58.9 65.8l8.7 2.2h313l8.7-2.2c16.5-4.2 29-11.4 39.3-22.5 10.9-11.8 17.3-25.8 19.6-43.3 1.4-11 .6-43.2-1.6-62-4.2-35.1-14.9-70.1-27.6-90-7.1-11.1-23.2-26.9-33.4-32.8-7.6-4.5-23.1-10.5-24.1-9.4-.3.3.4 3.5 1.5 7.1 3 9.8 4.1 20.9 4.1 42.6v19.5l4.3 2.7c15.3 9.8 28.1 27.3 33.8 46.3 1.8 5.9 2.2 10.4 2.6 28.5.5 21.2.6 21.5 3.1 24.5 6.9 8.1 9.1 20.5 5.6 30.8-2 6-8.4 13.1-14.8 16.5-4.4 2.3-6.3 2.7-14.1 2.7-8.1 0-9.5-.3-14.4-3-16.6-9.2-21.2-30.7-9.6-45.8l3.5-4.6V389c0-14.6-.3-17.9-2.1-23.2-6.4-19.2-25.2-30.9-44.7-27.7-17.1 2.7-31.4 16.9-34.2 34-.5 3.5-1 12.6-1 20.3v13.8l3.1 3.6c7.5 8.5 9.5 21.4 4.9 32-2.8 6.6-11.1 14.4-17.6 16.6-14.9 5.1-31.6-1.9-38.5-16.1-4.6-9.7-2.3-25.8 4.7-32.4 2.3-2.2 2.4-2.7 2.4-16.6 0-28.2 3.2-42.9 12.5-57.9 12.5-20 36.3-35.9 57-37.9 3.3-.3 7.5-.8 9.3-1.1l3.4-.5-.4-17.2c-.5-17.8-1.7-24.3-5.8-29.6l-1.7-2.4-9.4 6.2c-17.4 11.7-35.5 19.5-54.9 23.7-12.3 2.7-47.8 2.7-60 0-19.4-4.2-37.5-12-54.9-23.6-10.7-7.2-10.7-7.2-14.4 2.5-2.1 5.8-2.2 7.4-2.5 45.6l-.3 39.5 7.6 3.8c22 10.9 35.7 36.7 32.6 61.7-2 15.7-7.4 26.1-19.2 37.3-12.1 11.4-24.9 16.6-41.5 16.6-17 0-31.8-6.2-44-18.5-18.6-18.7-22.7-47.9-10.2-71.8 4.8-9.2 17.4-21.4 26.5-25.7l7.2-3.4.3-41.6c.4-44.3.1-40.7 5.4-58.8.8-2.9-.2-2.8-9.7.7zM165 476v18h-8v-36h8v18zm38 0v18h-4c-2.2 0-4-.5-4-1 0-.6-1.3-.4-3 .5-4.8 2.5-8.8 1.9-12.5-1.8-5.9-5.9-5.9-15.5 0-21.4 3.7-3.7 8.6-4.4 12.1-1.8 3.1 2.3 3.4 1.9 3.4-4.5v-6h8v18zm-63.5-7.6c4.1 1.8 6.5 5.2 7.2 10.6l.6 4h-10.2c-5.5 0-10.1.4-10.1.9 0 .4.9 2 2.1 3.5 2.4 3 6.4 3.4 12.8 1.1l4.1-1.4v2.9c0 2.5-.5 3-3.7 3.9-9.6 2.7-18.4.2-21.5-6-6.5-12.5 5.5-25 18.7-19.5zm94 0c4.1 1.8 6.5 5.2 7.2 10.6l.6 4h-10.2c-5.5 0-10.1.4-10.1.9 0 .4.9 2 2.1 3.5 2.4 3 6.4 3.4 12.8 1.1l4.1-1.4v2.9c0 2.5-.5 3-3.7 3.9-9.6 2.7-18.4.2-21.5-6-6.5-12.5 5.5-25 18.7-19.5zm36.5 2c0 2.9-.3 3.3-2 2.9-3.3-.9-6.6.5-7.8 3.2-.7 1.4-1.2 5.9-1.2 10v7.5h-8v-26h4c3 0 4 .4 4 1.6 0 1.3.5 1.2 2.6-.5 1.5-1.2 4-2.1 5.5-2.1 2.6 0 2.9.3 2.9 3.4zm27.4-2.8c1 .4 1.6 1.8 1.6 4 0 3.1-.2 3.4-1.9 2.4-3.6-1.9-7.8-1.2-10 1.6-4.2 5.3-1.1 13.4 5 13.4 1.7 0 3.9-.5 5-1 1.7-1 1.9-.7 1.9 2.4 0 2.2-.6 3.6-1.6 4-3.2 1.2-11 .6-14.4-1.2-10.4-5.5-8.7-22.6 2.5-25.5 3-.7 10.1-.8 11.9-.1zm33.4 2.7c2.5 2.6 2.7 3.3 3 13.2l.4 10.5h-4.1c-2.3 0-4.1-.5-4.1-1 0-.6-1.3-.4-3 .5-9.9 5.1-19.6-4.1-12.6-12.1 2-2.4 3.2-2.8 9-3.2 6.9-.5 8.1-1.5 5-4.6-1.7-1.8-7.9-2.1-11.8-.6-2.4.9-2.6.8-2.6-2 0-3.4 1.5-3.9 11.3-3.6 5.9.1 7.1.5 9.5 2.9zm34.2.1c0 2.9-.3 3.3-2 2.9-3.3-.9-6.6.5-7.8 3.2-.7 1.4-1.2 5.9-1.2 10v7.5h-8v-26h4c3 0 4 .4 4 1.6 0 1.3.5 1.2 2.6-.5 1.5-1.2 4-2.1 5.5-2.1 2.6 0 2.9.3 2.9 3.4zm26.5-2c4.1 1.8 6.5 5.2 7.2 10.6l.6 4h-10.2c-5.5 0-10.1.4-10.1.9 0 .4.9 2 2.1 3.5 2.4 3 6.4 3.4 12.8 1.1l4.1-1.4v2.9c0 2.5-.5 3-3.7 3.9-9.6 2.7-18.4.2-21.5-6-6.5-12.5 5.5-25 18.7-19.5z"/><path d="M185.6 475.2c-3.5 4.9-.9 13.8 3.9 13.8 3.1 0 5.5-3.5 5.5-8s-2.4-8-5.5-8c-1.3 0-3.1 1-3.9 2.2zM129 474c-3.2 3.2-2.4 4 4 4 6.5 0 7.6-1.2 4.2-4.3-2.5-2.3-5.8-2.1-8.2.3zM223 474c-3.2 3.2-2.4 4 4 4 6.5 0 7.6-1.2 4.2-4.3-2.5-2.3-5.8-2.1-8.2.3zM316.9 484.6c-1.7 2.1 0 4.8 3.4 5.2 2.5.3 5.7-2.7 5.7-5.5 0-1.9-7.5-1.7-9.1.3zM381 474c-3.2 3.2-2.4 4 4 4 6.5 0 7.6-1.2 4.2-4.3-2.5-2.3-5.8-2.1-8.2.3zM129.5 378.4c-.5.3-2.2.7-3.8 1-4.1.9-10.3 7.1-12.3 12.1-8.1 21.3 19.3 37.3 34.4 20.1 10.4-11.8 2.7-31-13.3-33-2.2-.3-4.4-.4-5-.2z"/></svg>